<?xml version="1.0" encoding="utf-8"?>
<svg version="1.1" xmlns:xlink="http://www.w3.org/1999/xlink" width="9px" height="9px" xmlns="http://www.w3.org/2000/svg">
  <g transform="matrix(1 0 0 1 -153 -988 )">
    <path d="M 8.801290760869566 3.607509627727856  C 8.93376358695652 3.7519255455712455  9 3.926187419768934  9 4.130295250320924  L 9 4.869704749679076  C 9 5.073812580231065  8.93376358695652 5.248074454428755  8.801290760869566 5.392490372272143  C 8.66881793478261 5.536906290115533  8.496603260869566 5.609114249037228  8.284646739130434 5.609114249037228  L 3.9802989130434785 5.609114249037228  L 5.771739130434782 7.307445442875482  C 5.926630434782609 7.446084724005135  6.004076086956522 7.619383825417201  6.004076086956522 7.827342747111682  C 6.004076086956522 8.035301668806163  5.926630434782609 8.20860077021823  5.771739130434782 8.347240051347882  L 5.313179347826087 8.786264441591785  C 5.162364130434783 8.928754813863929  4.978940217391304 9  4.762907608695652 9  C 4.5509510869565215 9  4.365489130434783 8.928754813863929  4.206521739130435 8.786264441591785  L 0.22622282608695654 5.019897304236201  C 0.07540760869565223 4.877406931964056  0 4.704107830551989  0 4.5  C 0 4.299743260590501  0.07540760869565223 4.124518613607188  0.22622282608695654 3.974326059050064  L 4.206521739130435 0.21951219512195141  C 4.361413043478262 0.07317073170731647  4.546875 0  4.762907608695652 0  C 4.974864130434782 0  5.158288043478262 0.07317073170731647  5.313179347826087 0.21951219512195141  L 5.771739130434782 0.6469833119383824  C 5.926630434782609 0.7933247753530164  6.004076086956522 0.9685494223363273  6.004076086956522 1.1726572528883183  C 6.004076086956522 1.3767650834403073  5.926630434782609 1.5519897304236192  5.771739130434782 1.6983311938382544  L 3.9802989130434785 3.3908857509627732  L 8.284646739130434 3.3908857509627732  C 8.496603260869566 3.3908857509627732  8.66881793478261 3.4630937098844674  8.801290760869566 3.607509627727856  Z " fill-rule="nonzero" fill="#000000" stroke="none" transform="matrix(1 0 0 1 153 988 )" />
  </g>
</svg>