<?xml version="1.0" encoding="utf-8"?>
<svg version="1.1" xmlns:xlink="http://www.w3.org/1999/xlink" width="11px" height="11px" xmlns="http://www.w3.org/2000/svg">
  <g transform="matrix(1 0 0 1 -203 -987 )">
    <path d="M 3.698381696428571 5.339202657807308  C 3.851841517857143 5.156478405315614  3.928571428571429 4.935991140642303  3.928571428571429 4.677740863787376  C 3.928571428571429 4.419490586932447  3.851841517857143 4.199003322259136  3.698381696428571 4.0162790697674415  C 3.544921875 3.833554817275747  3.3597470238095237 3.7421926910299  3.142857142857143 3.7421926910299  C 2.9259672619047623 3.7421926910299  2.740792410714286 3.833554817275747  2.5873325892857144 4.0162790697674415  C 2.433872767857143 4.199003322259136  2.357142857142857 4.419490586932447  2.357142857142857 4.677740863787376  C 2.357142857142857 4.935991140642303  2.433872767857143 5.156478405315614  2.5873325892857144 5.339202657807308  C 2.740792410714286 5.521926910299003  2.9259672619047623 5.613289036544851  3.142857142857143 5.613289036544851  C 3.3597470238095237 5.613289036544851  3.544921875 5.521926910299003  3.698381696428571 5.339202657807308  Z M 6.055524553571428 5.339202657807308  C 6.208984375 5.156478405315614  6.285714285714286 4.935991140642303  6.285714285714286 4.677740863787376  C 6.285714285714286 4.419490586932447  6.208984375 4.199003322259136  6.055524553571428 4.0162790697674415  C 5.902064732142858 3.833554817275747  5.716889880952381 3.7421926910299  5.5 3.7421926910299  C 5.2831101190476195 3.7421926910299  5.097935267857143 3.833554817275747  4.944475446428571 4.0162790697674415  C 4.791015625 4.199003322259136  4.714285714285714 4.419490586932447  4.714285714285714 4.677740863787376  C 4.714285714285714 4.935991140642303  4.791015625 5.156478405315614  4.944475446428571 5.339202657807308  C 5.097935267857143 5.521926910299003  5.2831101190476195 5.613289036544851  5.5 5.613289036544851  C 5.716889880952381 5.613289036544851  5.902064732142858 5.521926910299003  6.055524553571428 5.339202657807308  Z M 8.412667410714285 5.339202657807308  C 8.566127232142858 5.156478405315614  8.642857142857142 4.935991140642303  8.642857142857142 4.677740863787376  C 8.642857142857142 4.419490586932447  8.566127232142858 4.199003322259136  8.412667410714285 4.0162790697674415  C 8.259207589285715 3.833554817275747  8.074032738095239 3.7421926910299  7.857142857142858 3.7421926910299  C 7.640252976190477 3.7421926910299  7.455078125 3.833554817275747  7.301618303571428 4.0162790697674415  C 7.148158482142858 4.199003322259136  7.071428571428572 4.419490586932447  7.071428571428572 4.677740863787376  C 7.071428571428572 4.935991140642303  7.148158482142858 5.156478405315614  7.301618303571428 5.339202657807308  C 7.455078125 5.521926910299003  7.640252976190477 5.613289036544851  7.857142857142858 5.613289036544851  C 8.074032738095239 5.613289036544851  8.259207589285715 5.521926910299003  8.412667410714285 5.339202657807308  Z M 10.263392857142858 2.3279069767441856  C 10.754464285714285 3.046622369878184  11 3.8299003322259133  11 4.677740863787376  C 11 5.525581395348838  10.754464285714285 6.308859357696566  10.263392857142858 7.027574750830565  C 9.772321428571429 7.746290143964562  9.105282738095239 8.313953488372093  8.262276785714285 8.730564784053156  C 7.419270833333334 9.14717607973422  6.498511904761905 9.355481727574752  5.5 9.355481727574752  C 5.049851190476191 9.355481727574752  4.61811755952381 9.311627906976744  4.204799107142858 9.22392026578073  C 3.4968377976190483 10.06688815060908  2.6067708333333335 10.624806201550388  1.5345982142857144 10.897674418604652  C 1.3218005952380953 10.94640088593577  1.1458333333333335 10.978073089700997  1.0066964285714286 10.992691029900332  C 0.9575892857142857 10.997563676633444  0.9125744047619049 10.98294573643411  0.8716517857142857 10.948837209302326  C 0.8307291666666667 10.914728682170542  0.8041294642857143 10.870874861572537  0.7918526785714285 10.817275747508306  C 0.7754836309523809 10.744186046511627  0.81640625 10.65404208194906  0.9146205357142857 10.546843853820597  C 0.9350818452380952 10.52248062015504  0.9831659226190477 10.470099667774086  1.0588727678571428 10.38970099667774  C 1.1345796130952381 10.309302325581395  1.1867559523809526 10.252048726467331  1.2154017857142856 10.217940199335548  C 1.2440476190476193 10.183831672203766  1.2921316964285714 10.121705426356588  1.3596540178571428 10.03156146179402  C 1.4271763392857144 9.941417497231452  1.476283482142857 9.86467331118494  1.5069754464285714 9.801328903654486  C 1.5376674107142856 9.737984496124032  1.5796130952380953 9.647840531561462  1.6328125 9.530897009966777  C 1.6860119047619049 9.413953488372092  1.7269345238095242 9.297009966777408  1.755580357142857 9.180066445182725  C 1.7842261904761905 9.06312292358804  1.8138950892857144 8.923034330011074  1.8445870535714286 8.759800664451827  C 1.875279017857143 8.59656699889258  1.9008556547619049 8.419933554817275  1.9213169642857144 8.229900332225913  C 1.3238467261904763 7.791362126245848  0.8542596726190477 7.263898117386488  0.5125558035714286 6.647508305647841  C 0.1708519345238095 6.031118493909191  0 5.37452934662237  0 4.677740863787376  C 0 3.8299003322259133  0.2455357142857143 3.046622369878184  0.7366071428571428 2.3279069767441856  C 1.2276785714285716 1.6091915836101864  1.8947172619047619 1.041528239202658  2.7377232142857144 0.624916943521595  C 3.580729166666667 0.20830564784053207  4.501488095238096 0  5.5 0  C 6.498511904761905 0  7.419270833333334 0.20830564784053207  8.262276785714285 0.624916943521595  C 9.105282738095239 1.041528239202658  9.772321428571429 1.6091915836101864  10.263392857142858 2.3279069767441856  Z " fill-rule="nonzero" fill="#000000" stroke="none" transform="matrix(1 0 0 1 203 987 )" />
  </g>
</svg>