<?xml version="1.0" encoding="utf-8"?>
<svg version="1.1" xmlns:xlink="http://www.w3.org/1999/xlink" width="57px" height="48px" xmlns="http://www.w3.org/2000/svg">
  <g transform="matrix(1 0 0 1 -796 -53 )">
    <path d="M 48.806691449814124 27.423226812159  C 48.83023543990087 27.473109898674977  48.84200743494424 27.54793452844895  48 27.647700701480904  L 48 45.60561184723305  C 48.84200743494424 46.25409197194076  48.618339529120206 46.815276695245515  48.17100371747212 47.28916601714731  C 47.723667905824044 47.7630553390491  47.19392812887237 48  46.581784386617095 48  L 33 48  L 33 33.63367108339828  L 24 33.63367108339828  L 24 48  L 10.4182156133829 48  C 9.806071871127635 48  9.276332094175961 47.7630553390491  8.82899628252788 47.28916601714731  C 8.381660470879803 46.815276695245515  8.157992565055762 46.25409197194076  9 45.60561184723305  L 9 27.647700701480904  C 8.157992565055762 27.622759158222912  8.163878562577448 27.58534684333593  8.175650557620818 27.53546375681995  C 8.18742255266419 27.485580670303975  8.193308550185874 27.448168355416993  8.193308550185874 27.423226812159  L 28.5 9.68978955572876  L 48.806691449814124 27.423226812159  Z M 56.96468401486989 24.18706157443492  C 56.98822800495663 24.52377240841777  56.90582403965304 24.81683554169914  56.71747211895911 25.066250974279036  L 54.5278810408922 27.834762275915825  C 54.33952912019827 28.059236165237728  54.092317224287484 28.196414653156666  53.786245353159856 28.24629773967264  L 53.680297397769515 28.24629773967264  C 53.37422552664189 28.24629773967264  53.127013630731106 28.15900233826968  52.938661710037174 27.984411535463753  L 28.5 6.3975058456742016  L 4.061338289962825 27.984411535463753  C 3.778810408921933 28.183943881527664  3.496282527881041 28.27123928293063  3.2137546468401488 28.24629773967264  C 2.907682775712516 28.196414653156666  2.660470879801735 28.059236165237728  2.4721189591078065 27.834762275915825  L 0.2825278810408922 25.066250974279036  C 0.09417596034696411 24.81683554169914  0.011771995043370592 24.52377240841777  0.03531598513011153 24.18706157443492  C 0.05885997521685271 23.850350740452065  0.18835192069392823 23.58222915042868  0.42379182156133827 23.38269680436477  L 25.815985130111525 0.9727201870615758  C 26.569392812887237 0.3242400623538533  27.464064436183396 0  28.5 0  C 29.535935563816608 0  30.43060718711277 0.3242400623538533  31.184014869888475 0.9727201870615758  L 39.801115241635685 8.604832424006233  L 39.801115241635685 1.3094310210444249  C 39.801115241635685 0.9602494154325747  39.90706319702602 0.6734216679657035  40.11895910780669 0.44894777864380586  C 40.33085501858736 0.22447388932190293  40.60161090458488 0.11223694466095147  40.93122676579926 0.11223694466095147  L 47.71189591078067 0.11223694466095147  C 48.04151177199505 0.11223694466095147  48.312267657992564 0.22447388932190293  48.52416356877323 0.44894777864380586  C 48.7360594795539 0.6734216679657035  48.84200743494424 0.9602494154325747  48 1.3094310210444249  L 48 16.57365549493375  L 56.57620817843866 23.38269680436477  C 56.811648079306075 23.58222915042868  56.94114002478315 23.850350740452065  56.96468401486989 24.18706157443492  Z " fill-rule="nonzero" fill="#000000" stroke="none" transform="matrix(1 0 0 1 796 53 )" />
  </g>
</svg>