<?xml version="1.0" encoding="utf-8"?>
<svg version="1.1" xmlns:xlink="http://www.w3.org/1999/xlink" width="50px" height="50px" xmlns="http://www.w3.org/2000/svg">
  <g transform="matrix(1 0 0 1 -874 -52 )">
    <path d="M 48.21528165086447 0  C 48.58709797360105 0  48.92173266406395 0.10230654761905211  49.21918572225321 0.30691964285714524  C 49.832682654768554 0.7533482142857151  50.08365867261574 1.3485863095238082  49.97211377579476 2.09263392857143  L 42.83324037925265 44.949776785714285  C 42.740286298568506 45.48921130952381  42.44283324037925 45.907738095238095  41.940881204684885 46.205357142857146  C 41.68060977876929 46.354166666666664  41.39245212864845 46.42857142857143  41.07640825432237 46.42857142857143  C 40.871909276817256 46.42857142857143  40.648819483175316 46.38206845238095  40.40713887339654 46.2890625  L 27.77467930842164 41.12723214285714  L 21.02621305075293 49.35825892857143  C 20.691578360290016 49.78608630952381  20.236103364937723 50  19.65978806469604 50  C 19.418107454917273 50  19.21360847741216 49.96279761904762  19.046291132180706 49.888392857142854  C 18.693065625580964 49.758184523809526  18.409555679494332 49.539620535714285  18.195761293920803 49.232700892857146  C 17.981966908347278 48.92578125  17.875069715560514 48.586309523809526  17.875069715560514 48.214285714285715  L 17.875069715560514 38.4765625  L 41.96876742889013 8.92857142857143  L 12.158393753485779 34.737723214285715  L 1.143335192414947 30.21763392857143  C 0.45547499535229596 29.957217261904756  0.08365867261572783 29.445684523809522  0.027886224205242612 28.683035714285715  C -0.009295408068414206 27.938988095238095  0.28815765012084027 27.390252976190478  0.9202453987730062 27.03683035714286  L 47.32292247629671 0.25111607142856984  C 47.60178471834914 0.08370535714285476  47.89923777653839 0  48.21528165086447 0  Z " fill-rule="nonzero" fill="#000000" stroke="none" transform="matrix(1 0 0 1 874 52 )" />
  </g>
</svg>