<?xml version="1.0" encoding="utf-8"?>
<svg version="1.1" xmlns:xlink="http://www.w3.org/1999/xlink" width="53px" height="51px" xmlns="http://www.w3.org/2000/svg">
  <g transform="matrix(1 0 0 1 -945 -53 )">
    <path d="M 51.21634615384615 18.285444234404537  C 52.40544871794872 18.47826086956522  53 18.97101449275362  53 19.763705103969755  C 53 20.235034656584748  52.723958333333336 20.74921235034656  52.171875 21.306238185255197  L 40.60997596153846 32.68241965973535  L 43.34915865384615 48.75047258979206  C 43.37039262820513 48.90044108380592  43.38100961538462 49.11468178954001  43.38100961538462 49.39319470699433  C 43.38100961538462 49.843100189035916  43.26953125 50.22337744171392  43.046574519230774 50.534026465028354  C 42.82361778846154 50.84467548834279  42.49979967948718 51  42.07512019230769 51  C 41.67167467948718 51  41.24699519230769 50.87145557655955  40.801081730769226 50.61436672967864  L 26.5 43.030245746691875  L 12.198918269230768 50.61436672967864  C 11.731770833333334 50.87145557655955  11.307091346153845 51  10.924879807692307 51  C 10.478966346153845 51  10.14453125 50.84467548834279  9.921574519230768 50.534026465028354  C 9.698617788461538 50.22337744171392  9.587139423076923 49.843100189035916  9.587139423076923 49.39319470699433  C 9.587139423076923 49.26465028355388  9.608373397435898 49.050409577819785  9.650841346153845 48.75047258979206  L 12.390024038461538 32.68241965973535  L 0.7962740384615384 21.306238185255197  C 0.26542467948717946 20.727788279773158  0 20.213610586011345  0 19.763705103969755  C 0 18.97101449275362  0.5945512820512819 18.47826086956522  1.783653846153846 18.285444234404537  L 17.772836538461537 15.939508506616255  L 24.939302884615387 1.3175803402646478  C 25.3427483974359 0.4391934467548807  25.86298076923077 0  26.5 0  C 27.13701923076923 0  27.657251602564102 0.4391934467548807  28.060697115384617 1.3175803402646478  L 35.22716346153846 15.939508506616255  L 51.21634615384615 18.285444234404537  Z " fill-rule="nonzero" fill="#000000" stroke="none" transform="matrix(1 0 0 1 945 53 )" />
  </g>
</svg>