<?xml version="1.0" encoding="utf-8"?>
<svg version="1.1" xmlns:xlink="http://www.w3.org/1999/xlink" width="50px" height="50px" xmlns="http://www.w3.org/2000/svg">
  <g transform="matrix(1 0 0 1 -1094 -56 )">
    <path d="M 34.933035714285715 43.98716517857143  C 38.002232142857146 42.359561011904766  40.522693452380956 40.15066964285714  42.494419642857146 37.36049107142857  C 42.085193452380956 34.477306547619044  41.27139136904762 32.082403273809526  40.053013392857146 30.17578125  C 38.83463541666667 28.269159226190478  37.1186755952381 27.167038690476186  34.90513392857143 26.86941964285714  C 33.65885416666667 28.245907738095234  32.175409226190474 29.320126488095234  30.454799107142854 30.09207589285714  C 28.734188988095244 30.864025297619047  26.91592261904762 31.25  25 31.25  C 23.08407738095238 31.25  21.265811011904763 30.864025297619047  19.545200892857142 30.09207589285714  C 17.824590773809526 29.320126488095234  16.341145833333336 28.245907738095234  15.094866071428573 26.86941964285714  C 12.881324404761903 27.167038690476186  11.165364583333334 28.269159226190478  9.946986607142858 30.17578125  C 8.728608630952381 32.082403273809526  7.914806547619048 34.477306547619044  7.505580357142858 37.36049107142857  C 9.477306547619047 40.15066964285714  11.997767857142858 42.359561011904766  15.066964285714285 43.98716517857143  C 18.136160714285715 45.614769345238095  21.44717261904762 46.42857142857143  25 46.42857142857143  C 28.552827380952383 46.42857142857143  31.863839285714285 45.614769345238095  34.933035714285715 43.98716517857143  Z M 32.57533482142857 25.43247767857143  C 34.66796875 23.33984375  35.714285714285715 20.814732142857146  35.714285714285715 17.857142857142854  C 35.714285714285715 14.89955357142857  34.66796875 12.374441964285715  32.57533482142857 10.281808035714285  C 30.482700892857146 8.189174107142854  27.957589285714285 7.142857142857145  25 7.142857142857145  C 22.042410714285715 7.142857142857145  19.517299107142858 8.189174107142854  17.424665178571427 10.281808035714285  C 15.33203125 12.374441964285715  14.285714285714285 14.89955357142857  14.285714285714285 17.857142857142854  C 14.285714285714285 20.814732142857146  15.33203125 23.33984375  17.424665178571427 25.43247767857143  C 19.517299107142858 27.52511160714286  22.042410714285715 28.57142857142857  25 28.57142857142857  C 27.957589285714285 28.57142857142857  30.482700892857146 27.52511160714286  32.57533482142857 25.43247767857143  Z M 48.018973214285715 15.29017857142857  C 49.33965773809524 18.377976190476186  50 21.614583333333332  50 25  C 50 28.385416666666664  49.33965773809524 31.617373511904756  48.018973214285715 34.695870535714285  C 46.6982886904762 37.77436755952381  44.92652529761906 40.434337797619044  42.703683035714285 42.67578125  C 40.480840773809526 44.91722470238095  37.825520833333336 46.69828869047619  34.737723214285715 48.018973214285715  C 31.6499255952381 49.33965773809524  28.404017857142854 50  25 50  C 21.614583333333336 50  18.377976190476193 49.33965773809524  15.290178571428573 48.018973214285715  C 12.202380952380953 46.69828869047619  9.542410714285714 44.921875  7.310267857142858 42.68973214285714  C 5.078125 40.457589285714285  3.3017113095238098 37.797619047619044  1.9810267857142856 34.70982142857143  C 0.6603422619047619 31.622023809523807  0 28.385416666666664  0 25  C 0 21.614583333333332  0.6603422619047619 18.377976190476186  1.9810267857142856 15.29017857142857  C 3.3017113095238098 12.202380952380947  5.078125 9.542410714285715  7.310267857142858 7.310267857142855  C 9.542410714285714 5.078125  12.202380952380953 3.3017113095238084  15.290178571428573 1.981026785714285  C 18.377976190476193 0.6603422619047616  21.614583333333336 0  25 0  C 28.385416666666668 0  31.622023809523814 0.6603422619047616  34.70982142857143 1.981026785714285  C 37.79761904761905 3.3017113095238084  40.457589285714285 5.078125  42.689732142857146 7.310267857142855  C 44.92187500000001 9.542410714285715  46.6982886904762 12.202380952380947  48.018973214285715 15.29017857142857  Z " fill-rule="nonzero" fill="#000000" stroke="none" transform="matrix(1 0 0 1 1094 56 )" />
  </g>
</svg>