<?xml version="1.0" encoding="utf-8"?>
<svg version="1.1" xmlns:xlink="http://www.w3.org/1999/xlink" width="31px" height="24px" xmlns="http://www.w3.org/2000/svg">
  <g transform="matrix(1 0 0 1 -142 -637 )">
    <path d="M 10.422712053571429 11.649169435215946  C 10.855189732142856 11.25049833887043  11.071428571428571 10.769435215946842  11.071428571428571 10.205980066445182  C 11.071428571428571 9.642524916943522  10.855189732142856 9.161461794019932  10.422712053571429 8.762790697674419  C 9.990234375 8.364119601328902  9.468377976190476 8.164784053156145  8.857142857142856 8.164784053156145  C 8.245907738095239 8.164784053156145  7.724051339285715 8.364119601328902  7.291573660714286 8.762790697674419  C 6.859095982142858 9.161461794019932  6.642857142857142 9.642524916943522  6.642857142857142 10.205980066445182  C 6.642857142857142 10.769435215946842  6.859095982142858 11.25049833887043  7.291573660714286 11.649169435215946  C 7.724051339285715 12.04784053156146  8.245907738095239 12.24717607973422  8.857142857142856 12.24717607973422  C 9.468377976190476 12.24717607973422  9.990234375 12.04784053156146  10.422712053571429 11.649169435215946  Z M 17.06556919642857 11.649169435215946  C 17.498046875 11.25049833887043  17.71428571428571 10.769435215946842  17.71428571428571 10.205980066445182  C 17.71428571428571 9.642524916943522  17.498046875 9.161461794019932  17.06556919642857 8.762790697674419  C 16.633091517857142 8.364119601328902  16.11123511904762 8.164784053156145  15.5 8.164784053156145  C 14.888764880952383 8.164784053156145  14.366908482142858 8.364119601328902  13.934430803571429 8.762790697674419  C 13.501953125 9.161461794019932  13.285714285714285 9.642524916943522  13.285714285714285 10.205980066445182  C 13.285714285714285 10.769435215946842  13.501953125 11.25049833887043  13.934430803571429 11.649169435215946  C 14.366908482142858 12.04784053156146  14.888764880952383 12.24717607973422  15.5 12.24717607973422  C 16.11123511904762 12.24717607973422  16.633091517857142 12.04784053156146  17.06556919642857 11.649169435215946  Z M 23.70842633928571 11.649169435215946  C 24.140904017857142 11.25049833887043  24.357142857142858 10.769435215946842  24.357142857142858 10.205980066445182  C 24.357142857142858 9.642524916943522  24.140904017857142 9.161461794019932  23.70842633928571 8.762790697674419  C 23.27594866071429 8.364119601328902  22.754092261904766 8.164784053156145  22.142857142857142 8.164784053156145  C 21.531622023809526 8.164784053156145  21.009765625 8.364119601328902  20.57728794642857 8.762790697674419  C 20.144810267857142 9.161461794019932  19.92857142857143 9.642524916943522  19.92857142857143 10.205980066445182  C 19.92857142857143 10.769435215946842  20.144810267857142 11.25049833887043  20.57728794642857 11.649169435215946  C 21.009765625 12.04784053156146  21.531622023809526 12.24717607973422  22.142857142857142 12.24717607973422  C 22.754092261904766 12.24717607973422  23.27594866071429 12.04784053156146  23.70842633928571 11.649169435215946  Z M 28.924107142857142 5.07906976744186  C 30.30803571428571 6.647176079734219  31 8.356146179401993  31 10.205980066445182  C 31 12.055813953488373  30.30803571428571 13.764784053156145  28.924107142857142 15.332890365448506  C 27.54017857142857 16.900996677740864  25.660342261904766 18.13953488372093  23.28459821428571 19.048504983388703  C 20.908854166666668 19.95747508305648  18.313988095238095 20.411960132890364  15.5 20.411960132890364  C 14.23139880952381 20.411960132890364  13.014694940476193 20.316279069767443  11.849888392857144 20.124916943521594  C 9.854724702380954 21.964119601328903  7.346354166666667 23.18139534883721  4.324776785714286 23.776744186046514  C 3.725074404761905 23.883056478405315  3.229166666666667 23.952159468438538  2.837053571428571 23.98405315614618  C 2.698660714285714 23.994684385382058  2.571800595238096 23.96279069767442  2.456473214285714 23.888372093023257  C 2.3411458333333335 23.813953488372093  2.266183035714286 23.718272425249168  2.231584821428571 23.601328903654483  C 2.185453869047619 23.441860465116278  2.30078125 23.245182724252494  2.577566964285714 23.011295681063125  C 2.6352306547619047 22.95813953488372  2.7707403273809526 22.843853820598007  2.984095982142857 22.668438538205983  C 3.197451636904762 22.493023255813952  3.344494047619048 22.368106312292362  3.425223214285714 22.293687707641197  C 3.5059523809523814 22.219269102990033  3.641462053571429 22.083720930232555  3.831752232142857 21.88704318936877  C 4.022042410714286 21.690365448504984  4.160435267857142 21.52292358803987  4.246930803571428 21.38471760797342  C 4.333426339285714 21.246511627906976  4.451636904761905 21.04983388704319  4.6015625 20.794684385382062  C 4.751488095238096 20.53953488372093  4.866815476190477 20.2843853820598  4.947544642857142 20.029235880398673  C 5.028273809523809 19.774086378737543  5.111886160714286 19.46843853820598  5.198381696428572 19.112292358803987  C 5.284877232142858 18.756146179401995  5.356956845238096 18.37076411960133  5.414620535714286 17.956146179401994  C 3.730840773809524 16.99933554817276  2.4074590773809526 15.848504983388702  1.4444754464285714 14.503654485049832  C 0.4814918154761904 13.15880398671096  0 11.726245847176079  0 10.205980066445182  C 0 8.356146179401993  0.6919642857142857 6.647176079734219  2.075892857142857 5.07906976744186  C 3.4598214285714293 3.510963455149498  5.339657738095238 2.2724252491694354  7.715401785714286 1.3634551495016618  C 10.091145833333334 0.45448504983388816  12.686011904761907 0  15.5 0  C 18.313988095238095 0  20.908854166666668 0.45448504983388816  23.28459821428571 1.3634551495016618  C 25.660342261904766 2.2724252491694354  27.54017857142857 3.510963455149498  28.924107142857142 5.07906976744186  Z " fill-rule="nonzero" fill="#000000" stroke="none" transform="matrix(1 0 0 1 142 637 )" />
  </g>
</svg>