<?xml version="1.0" encoding="utf-8"?>
<svg version="1.1" xmlns:xlink="http://www.w3.org/1999/xlink" width="22px" height="21px" xmlns="http://www.w3.org/2000/svg">
  <g transform="matrix(1 0 0 1 -136 -268 )">
    <path d="M 21.477535301668805 8.68037761294673  C 21.825845100556275 9.048550236008092  22.000000000000004 9.478084962913014  22 9.968981793661497  C 22.000000000000004 10.46931894807822  21.825845100556275 10.894133513149022  21.477535301668805 11.243425488873905  L 12.284980744544288 20.476062036412678  C 11.917843388960206 20.82535401213756  11.48951647411211 21  11 21  C 10.501069747539582 21  10.07744972186564 20.82535401213756  9.729139922978177 20.476062036412678  L 0.5365853658536586 11.243425488873905  C 0.17886178861788624 10.903573836817262  0 10.47875927174646  0 9.968981793661497  C 0 9.468644639244772  0.17886178861788624 9.03910991233985  0.5365853658536586 8.68037761294673  L 1.5815147625160462 7.618341200269724  C 1.9486521181001288 7.2690492245448395  2.3769790329482245 7.0944032366824015  2.8664955070603337 7.0944032366824015  C 3.365425759520754 7.0944032366824015  3.7890457851946944 7.2690492245448395  4.137355584082156 7.618341200269724  L 8.288831835686777 11.78152393796359  L 8.288831835686777 1.81254214430209  C 8.288831835686777 1.3216453135536073  8.467693624304665 0.8968307484828031  8.825417201540436 0.5380984490896842  C 9.18314077877621 0.17936614969655829  9.60676080445015 0  10.096277278562258 0  L 11.903722721437742 0  C 12.393239195549851 0  12.816859221223792 0.17936614969655829  13.174582798459564 0.5380984490896842  C 13.532306375695336 0.8968307484828031  13.711168164313221 1.3216453135536073  13.711168164313221 1.81254214430209  L 13.711168164313221 11.78152393796359  L 17.862644415917842 7.618341200269724  C 18.210954214805305 7.2690492245448395  18.63457424047925 7.0944032366824015  19.133504492939664 7.0944032366824015  C 19.623020967051776 7.0944032366824015  20.051347881899872 7.2690492245448395  20.418485237483953 7.618341200269724  L 21.477535301668805 8.68037761294673  Z " fill-rule="nonzero" fill="#000000" stroke="none" transform="matrix(1 0 0 1 136 268 )" />
  </g>
</svg>