<?xml version="1.0" encoding="utf-8"?>
<svg version="1.1" xmlns:xlink="http://www.w3.org/1999/xlink" width="22px" height="21px" xmlns="http://www.w3.org/2000/svg">
  <g transform="matrix(1 0 0 1 -137 -218 )">
    <path d="M 21.477535301668805 9.815217391304348  C 21.825845100556275 10.186141304347824  22.000000000000004 10.618885869565215  22 11.113451086956522  C 22.000000000000004 11.59850543478261  21.825845100556275 12.02649456521739  21.477535301668805 12.39741847826087  L 20.418485237483953 13.467391304347824  C 20.060761660248183 13.828804347826084  19.63243474540009 14.009510869565219  19.133504492939664 14.009510869565219  C 18.625160462130935 14.009510869565219  18.201540436456995 13.828804347826084  17.862644415917842 13.467391304347824  L 13.711168164313221 9.287364130434781  L 13.711168164313221 19.330842391304348  C 13.711168164313221 19.825407608695652  13.534659820282414 20.227241847826086  13.181643132220795 20.536345108695652  C 12.828626444159177 20.84544836956522  12.402652973898162 21  11.903722721437742 21  L 10.096277278562258 21  C 9.597347026101842 21  9.171373555840821 20.84544836956522  8.818356867779205 20.536345108695652  C 8.465340179717586 20.227241847826086  8.288831835686777 19.825407608695652  8.288831835686777 19.330842391304348  L 8.288831835686777 9.287364130434781  L 4.137355584082156 13.467391304347824  C 3.7984595635430036 13.828804347826084  3.3748395378690628 14.009510869565219  2.8664955070603337 14.009510869565219  C 2.3581514762516047 14.009510869565219  1.9345314505776636 13.828804347826084  1.595635430038511 13.467391304347824  L 0.5365853658536586 12.39741847826087  C 0.17886178861788624 12.036005434782608  0 11.608016304347826  0 11.113451086956522  C 0 10.609374999999998  0.17886178861788624 10.17663043478261  0.5365853658536586 9.815217391304348  L 9.729139922978177 0.5278532608695655  C 10.058622165169023 0.17595108695652106  10.482242190842962 0  11 0  C 11.508344030808727 0  11.936670945656827 0.17595108695652106  12.284980744544288 0.5278532608695655  L 21.477535301668805 9.815217391304348  Z " fill-rule="nonzero" fill="#000000" stroke="none" transform="matrix(1 0 0 1 137 218 )" />
  </g>
</svg>