<?xml version="1.0" encoding="utf-8"?>
<svg version="1.1" xmlns:xlink="http://www.w3.org/1999/xlink" width="23px" height="25px" xmlns="http://www.w3.org/2000/svg">
  <defs>
    <mask fill="white" id="clip28">
      <path d="M 2.084375 0  L 20.915625000000002 0  C 21.191145833333337 0  21.454687500000002 0.04957038995373475  21.70625 0.14871116986120425  C 22.1015625 0.2919145186164318  22.416015625 0.5177351839612238  22.649609375 0.8261731658955718  C 22.883203124999998 1.134611147829917  23 1.4760960564000865  23 1.8506278916060799  L 23 23.14937210839392  C 23 23.523903943599915  22.883203124999998 23.86538885217008  22.649609375 24.17382683410443  C 22.416015625 24.482264816038775  22.1015625 24.708085481383563  21.70625 24.851288830138795  C 21.478645833333335 24.939413967834323  21.21510416666667 24.98347653668209  20.915625000000002 24.98347653668209  C 20.340625 24.98347653668209  19.843489583333337 24.80722626129103  19.424218749999998 24.454725710508924  L 11.5 17.448777263714472  L 3.57578125 24.454725710508924  C 3.14453125 24.818241903502976  2.6473958333333334 25  2.084375 25  C 1.8088541666666667 25  1.5453124999999999 24.950429610046264  1.29375 24.851288830138795  C 0.8984375 24.708085481383563  0.583984375 24.482264816038775  0.350390625 24.17382683410443  C 0.11679687500000001 23.86538885217008  0 23.523903943599915  0 23.14937210839392  L 0 1.8506278916060799  C 0 1.4760960564000865  0.11679687500000001 1.134611147829917  0.350390625 0.8261731658955718  C 0.583984375 0.5177351839612238  0.8984375 0.2919145186164318  1.29375 0.14871116986120425  C 1.5453124999999999 0.04957038995373475  1.8088541666666667 0  2.084375 0  Z " fill-rule="evenodd" />
    </mask>
  </defs>
  <g transform="matrix(1 0 0 1 -333 -635 )">
    <path d="M 2.084375 0  L 20.915625000000002 0  C 21.191145833333337 0  21.454687500000002 0.04957038995373475  21.70625 0.14871116986120425  C 22.1015625 0.2919145186164318  22.416015625 0.5177351839612238  22.649609375 0.8261731658955718  C 22.883203124999998 1.134611147829917  23 1.4760960564000865  23 1.8506278916060799  L 23 23.14937210839392  C 23 23.523903943599915  22.883203124999998 23.86538885217008  22.649609375 24.17382683410443  C 22.416015625 24.482264816038775  22.1015625 24.708085481383563  21.70625 24.851288830138795  C 21.478645833333335 24.939413967834323  21.21510416666667 24.98347653668209  20.915625000000002 24.98347653668209  C 20.340625 24.98347653668209  19.843489583333337 24.80722626129103  19.424218749999998 24.454725710508924  L 11.5 17.448777263714472  L 3.57578125 24.454725710508924  C 3.14453125 24.818241903502976  2.6473958333333334 25  2.084375 25  C 1.8088541666666667 25  1.5453124999999999 24.950429610046264  1.29375 24.851288830138795  C 0.8984375 24.708085481383563  0.583984375 24.482264816038775  0.350390625 24.17382683410443  C 0.11679687500000001 23.86538885217008  0 23.523903943599915  0 23.14937210839392  L 0 1.8506278916060799  C 0 1.4760960564000865  0.11679687500000001 1.134611147829917  0.350390625 0.8261731658955718  C 0.583984375 0.5177351839612238  0.8984375 0.2919145186164318  1.29375 0.14871116986120425  C 1.5453124999999999 0.04957038995373475  1.8088541666666667 0  2.084375 0  Z " fill-rule="nonzero" fill="#ffffff" stroke="none" transform="matrix(1 0 0 1 333 635 )" />
    <path d="M 2.084375 0  L 20.915625000000002 0  C 21.191145833333337 0  21.454687500000002 0.04957038995373475  21.70625 0.14871116986120425  C 22.1015625 0.2919145186164318  22.416015625 0.5177351839612238  22.649609375 0.8261731658955718  C 22.883203124999998 1.134611147829917  23 1.4760960564000865  23 1.8506278916060799  L 23 23.14937210839392  C 23 23.523903943599915  22.883203124999998 23.86538885217008  22.649609375 24.17382683410443  C 22.416015625 24.482264816038775  22.1015625 24.708085481383563  21.70625 24.851288830138795  C 21.478645833333335 24.939413967834323  21.21510416666667 24.98347653668209  20.915625000000002 24.98347653668209  C 20.340625 24.98347653668209  19.843489583333337 24.80722626129103  19.424218749999998 24.454725710508924  L 11.5 17.448777263714472  L 3.57578125 24.454725710508924  C 3.14453125 24.818241903502976  2.6473958333333334 25  2.084375 25  C 1.8088541666666667 25  1.5453124999999999 24.950429610046264  1.29375 24.851288830138795  C 0.8984375 24.708085481383563  0.583984375 24.482264816038775  0.350390625 24.17382683410443  C 0.11679687500000001 23.86538885217008  0 23.523903943599915  0 23.14937210839392  L 0 1.8506278916060799  C 0 1.4760960564000865  0.11679687500000001 1.134611147829917  0.350390625 0.8261731658955718  C 0.583984375 0.5177351839612238  0.8984375 0.2919145186164318  1.29375 0.14871116986120425  C 1.5453124999999999 0.04957038995373475  1.8088541666666667 0  2.084375 0  Z " stroke-width="6" stroke="#000000" fill="none" transform="matrix(1 0 0 1 333 635 )" mask="url(#clip28)" />
  </g>
</svg>