<?xml version="1.0" encoding="utf-8"?>
<svg version="1.1" xmlns:xlink="http://www.w3.org/1999/xlink" width="19px" height="17px" xmlns="http://www.w3.org/2000/svg">
  <g transform="matrix(1 0 0 1 -139 -106 )">
    <path d="M 4.107161664033701 4.606270627062706  C 4.357293312269616 4.325742574257426  4.482359136387572 3.9872387238723856  4.482359136387572 3.5907590759075907  C 4.482359136387572 3.194279427942792  4.357293312269616 2.855775577557756  4.107161664033701 2.5752475247524758  C 3.8570300157977884 2.2947194719471957  3.5552044935931195 2.1544554455445546  3.201685097419695 2.1544554455445546  C 2.8481657012462698 2.1544554455445546  2.5463401790416014 2.2947194719471957  2.296208530805687 2.5752475247524758  C 2.0460768825697735 2.855775577557756  1.9210110584518167 3.194279427942792  1.9210110584518167 3.5907590759075907  C 1.9210110584518167 3.9872387238723856  2.0460768825697735 4.325742574257426  2.296208530805687 4.606270627062706  C 2.5463401790416014 4.8867986798679866  2.8481657012462698 5.027062706270627  3.201685097419695 5.027062706270627  C 3.5552044935931195 5.027062706270627  3.8570300157977884 4.8867986798679866  4.107161664033701 4.606270627062706  Z M 14.787783043707215 9.033003300330034  C 15.034579603299983 9.324752475247525  15.157977883096365 9.665126512651266  15.157977883096365 10.054125412541254  C 15.157977883096365 10.45060506050605  15.034579603299983 10.787238723872386  14.787783043707215 11.064026402640264  L 9.87519747235387 16.584818481848185  C 9.615060558188521 16.861606160616063  9.311567491662279 17  8.964718272775144 17  C 8.611198876601721 17  8.311040898718625 16.861606160616063  8.064244339125855 16.584818481848185  L 0.9104791995787256 8.550495049504951  C 0.6570124626996665 8.273707370737073  0.4418992452167808 7.895929592959295  0.2651395471300685 7.417161716171617  C 0.08837984904335615 6.938393839383938  0 6.5007700770077  0 6.104290429042903  L 0 1.4363036303630363  C 0 1.0473047304730474  0.12673336843952956 0.7106710671067105  0.3802001053185888 0.4264026402640255  C 0.6336668421976479 0.14213421342134058  0.9338248200807444 0  1.2806740389678777 0  L 5.44286466561348 0  C 5.796384061786906 0  6.186589433034931 0.09911991199119774  6.613480779357556 0.297359735973597  C 7.040372125680183 0.49559955995599436  7.380551167281026 0.7368536853685346  7.634017904160084 1.0211221122112213  L 14.787783043707215 9.033003300330034  Z M 18.62980516061085 9.033003300330034  C 18.87660172020362 9.324752475247525  19.000000000000004 9.665126512651266  19 10.054125412541254  C 19.000000000000004 10.45060506050605  18.87660172020362 10.787238723872386  18.62980516061085 11.064026402640264  L 13.717219589257505 16.584818481848185  C 13.457082675092154 16.861606160616063  13.153589608565913 17  12.80674038967878 17  C 12.566614007372301 17  12.369843777426716 16.947634763476348  12.216429699842022 16.842904290429043  C 12.06301562225733 16.73817381738174  11.886255924170616 16.56985698569857  11.686150605581885 16.337953795379537  L 16.38862559241706 11.064026402640264  C 16.63542215200983 10.787238723872386  16.758820431806214 10.45060506050605  16.758820431806214 10.054125412541254  C 16.758820431806214 9.665126512651266  16.63542215200983 9.324752475247525  16.38862559241706 9.033003300330034  L 9.234860452869931 1.0211221122112213  C 8.981393715990873 0.7368536853685346  8.64121467439003 0.49559955995599436  8.214323328067403 0.297359735973597  C 7.787431981744779 0.09911991199119774  7.397226610496753 0  7.043707214323328 0  L 9.284886782517114 0  C 9.638406178690541 0  10.028611549938566 0.09911991199119774  10.45550289626119 0.297359735973597  C 10.882394242583816 0.49559955995599436  11.222573284184659 0.7368536853685346  11.476040021063719 1.0211221122112213  L 18.62980516061085 9.033003300330034  Z " fill-rule="nonzero" fill="#169bd5" stroke="none" transform="matrix(1 0 0 1 139 106 )" />
  </g>
</svg>