<?xml version="1.0" encoding="utf-8"?>
<svg version="1.1" xmlns:xlink="http://www.w3.org/1999/xlink" width="9px" height="9px" xmlns="http://www.w3.org/2000/svg">
  <g transform="matrix(1 0 0 1 -181 -988 )">
    <path d="M 8.773777173913043 3.9801026957637995  C 8.924592391304348 4.114890885750962  9 4.288189987163029  9 4.5  C 9 4.70795892169448  8.924592391304348 4.883183568677792  8.773777173913043 5.025673940949936  L 4.793478260869565 8.786264441591785  C 4.634510869565218 8.928754813863929  4.4490489130434785 9  4.237092391304348 9  C 4.029211956521739 9  3.845788043478261 8.928754813863929  3.6868206521739126 8.786264441591785  L 3.2282608695652173 8.353016688061617  C 3.0733695652173916 8.206675224646984  2.9959239130434785 8.031450577663671  2.9959239130434785 7.827342747111682  C 2.9959239130434785 7.623234916559692  3.0733695652173916 7.44801026957638  3.2282608695652173 7.301668806161746  L 5.019701086956522 5.609114249037228  L 0.7153532608695653 5.609114249037228  C 0.5033967391304348 5.609114249037228  0.33118206521739135 5.536906290115533  0.19870923913043478 5.392490372272143  C 0.06623641304347826 5.248074454428755  0 5.073812580231065  0 4.869704749679076  L 0 4.130295250320924  C 0 3.926187419768934  0.06623641304347826 3.7519255455712455  0.19870923913043478 3.607509627727856  C 0.33118206521739135 3.4630937098844674  0.5033967391304348 3.3908857509627732  0.7153532608695653 3.3908857509627732  L 5.019701086956522 3.3908857509627732  L 3.2282608695652173 1.6925545571245189  C 3.0733695652173916 1.5539152759948651  2.9959239130434785 1.380616174582799  2.9959239130434785 1.1726572528883183  C 2.9959239130434785 0.9646983311938387  3.0733695652173916 0.7913992297817716  3.2282608695652173 0.6527599486521178  L 3.6868206521739126 0.21951219512195141  C 3.8417119565217397 0.07317073170731647  4.025135869565218 0  4.237092391304348 0  C 4.453125 0  4.638586956521739 0.07317073170731647  4.793478260869565 0.21951219512195141  L 8.773777173913043 3.9801026957637995  Z " fill-rule="nonzero" fill="#000000" stroke="none" transform="matrix(1 0 0 1 181 988 )" />
  </g>
</svg>