<?xml version="1.0" encoding="utf-8"?>
<svg version="1.1" xmlns:xlink="http://www.w3.org/1999/xlink" width="50px" height="50px" xmlns="http://www.w3.org/2000/svg">
  <g transform="matrix(1 0 0 1 -1021 -56 )">
    <path d="M 48.01432291666667 15.299479166666668  C 49.338107638888886 18.38107638888889  50 21.614583333333332  50 25  C 50 28.385416666666664  49.338107638888886 31.618923611111104  48.01432291666667 34.700520833333336  C 46.69053819444445 37.78211805555556  44.91102430555556 40.44053819444444  42.67578125 42.67578125  C 40.44053819444445 44.91102430555556  37.78211805555556 46.69053819444444  34.70052083333333 48.01432291666667  C 31.618923611111114 49.33810763888889  28.385416666666668 50  25 50  C 21.267361111111114 50  17.71918402777778 49.21332465277777  14.35546875 47.63997395833333  C 10.991753472222223 46.06662326388889  8.12717013888889 43.84765625  5.76171875 40.98307291666667  C 5.609809027777779 40.76605902777777  5.539279513888889 40.52191840277777  5.550130208333334 40.25065104166667  C 5.560980902777779 39.97938368055556  5.653211805555556 39.75694444444444  5.826822916666666 39.58333333333333  L 10.286458333333332 35.091145833333336  C 10.503472222222223 34.895833333333336  10.774739583333332 34.798177083333336  11.100260416666668 34.798177083333336  C 11.44748263888889 34.84157986111111  11.697048611111112 34.97178819444444  11.848958333333332 35.188802083333336  C 13.433159722222223 37.25043402777778  15.375434027777779 38.84548611111111  17.67578125 39.97395833333333  C 19.976128472222225 41.10243055555556  22.417534722222225 41.66666666666667  25 41.66666666666667  C 27.256944444444446 41.66666666666667  29.410807291666668 41.22721354166667  31.461588541666668 40.34830729166667  C 33.51236979166667 39.46940104166667  35.28645833333333 38.28125  36.78385416666667 36.783854166666664  C 38.28125 35.286458333333336  39.46940104166667 33.512369791666664  40.34830729166667 31.461588541666664  C 41.22721354166667 29.410807291666664  41.66666666666667 27.256944444444443  41.66666666666667 25  C 41.66666666666667 22.743055555555554  41.22721354166667 20.589192708333332  40.34830729166667 18.538411458333332  C 39.46940104166667 16.487630208333332  38.28125 14.713541666666668  36.78385416666667 13.216145833333332  C 35.28645833333333 11.71875  33.51236979166667 10.530598958333332  31.461588541666668 9.651692708333332  C 29.410807291666668 8.772786458333332  27.256944444444446 8.333333333333332  25 8.333333333333332  C 22.873263888888893 8.333333333333332  20.833333333333336 8.71853298611111  18.880208333333336 9.488932291666668  C 16.927083333333336 10.259331597222216  15.190972222222223 11.360677083333332  13.671875 12.79296875  L 18.131510416666664 17.28515625  C 18.804253472222225 17.936197916666668  18.956163194444446 18.684895833333332  18.587239583333336 19.53125  C 18.218315972222225 20.399305555555557  17.578125 20.833333333333332  16.666666666666664 21  L 2.083333333333333 21  C 1.5190972222222223 20.833333333333332  1.030815972222222 20.62717013888889  0.6184895833333333 20.21484375  C 0.20616319444444445 19.80251736111111  0 19.31423611111111  0 18.75  L 0 4.166666666666669  C 0 3.2552083333333313  0.43402777777777773 2.6150173611111107  1.3020833333333335 2.24609375  C 2.1484375 1.877170138888884  2.897135416666667 2.0290798611111107  3.5481770833333335 2.7018229166666687  L 7.779947916666667 6.901041666666669  C 10.101996527777779 4.709201388888884  12.754991319444445 3.0110677083333313  15.738932291666666 1.806640625  C 18.722873263888893 0.6022135416666685  21.809895833333336 0  25 0  C 28.385416666666668 0  31.618923611111114 0.6618923611111105  34.70052083333333 1.9856770833333315  C 37.78211805555556 3.3094618055555527  40.44053819444445 5.088975694444442  42.67578125 7.32421875  C 44.91102430555556 9.559461805555552  46.69053819444445 12.217881944444443  48.01432291666667 15.299479166666668  Z M 28.873697916666668 14.876302083333332  C 29.069010416666668 15.071614583333332  29.166666666666668 15.321180555555552  29 15.625  L 29 30.208333333333336  C 29.166666666666668 30.51215277777778  29.069010416666668 30.76171875  28.873697916666668 30.95703125  C 28.678385416666668 31.15234375  28.428819444444446 31.25  28.125 31  L 17.708333333333336 31  C 17.404513888888893 31.25  17.154947916666664 31.15234375  16.959635416666664 30.95703125  C 16.764322916666664 30.76171875  16.666666666666664 30.51215277777778  16.666666666666664 30.208333333333336  L 16.666666666666664 28.125  C 16.666666666666664 27.821180555555557  16.764322916666664 27.571614583333336  16.959635416666664 27.376302083333336  C 17.154947916666664 27.180989583333336  17.404513888888893 27.083333333333336  17.708333333333336 27.083333333333336  L 25 27.083333333333336  L 25 15.625  C 25 15.321180555555552  25.09765625 15.071614583333332  25.29296875 14.876302083333332  C 25.488281250000007 14.680989583333332  25.737847222222225 14.583333333333332  26.041666666666668 14.583333333333332  L 28.125 14.583333333333332  C 28.428819444444446 14.583333333333332  28.678385416666668 14.680989583333332  28.873697916666668 14.876302083333332  Z " fill-rule="nonzero" fill="#000000" stroke="none" transform="matrix(1 0 0 1 1021 56 )" />
  </g>
</svg>